<?xml version="1.0" encoding="utf-8"?>
<!-- Generator: Adobe Illustrator 18.1.0, SVG Export Plug-In . SVG Version: 6.00 Build 0)  -->
<svg version="1.1" id="Layer_1" xmlns="http://www.w3.org/2000/svg" xmlns:xlink="http://www.w3.org/1999/xlink" x="0px" y="0px"
	 viewBox="0 0 150 150" enable-background="new 0 0 150 150" xml:space="preserve">
<g>
	<path fill="none" d="M94.7,67.4c2.3-4.1,3.5-8.4,3.9-12.9c-6.3,2.5-12.7,5.1-18.4,8.7c3.4,1.9,7,3.3,10.8,4.1
		C93.2,67.7,94.3,67.5,94.7,67.4z"/>
	<path fill="none" d="M87.3,19c-3.9-0.5-8.6,0.2-12.6,1.7c-4.5,1.7-8.9,3.5-13.4,5.2c-5.3,2-8.6,5.6-9,9.3c0.1,0.1,0.1,0.2,0.2,0.3
		c-0.1,0-0.1,0-0.2,0C52,37.5,52.6,39.3,54,41c1.2,1.5,2.5,2.9,3.9,4.4c3.9,3.5,7.9,7.3,12.1,10.8c1.7-1.9,3.8-3.9,6.3-5.7
		c5.3-4.8,12.4-7.7,19.1-9.5c0.8-0.3,1.7-0.6,2.5-0.9c-0.7-5.4-1.8-10.8-2.4-15.9C94.5,22.4,91.2,19.5,87.3,19z"/>
	<path fill="none" d="M80.1,75c-0.4-0.1-0.9-0.1-1.3-0.2c0,0,0,0,0,0c1.8,2.1,3.3,4.9,4.3,8.5c0.4,1.5,0.8,3.1,1,5
		c7.3,3.1,15.3,5,22.4,7.4c2.1-0.1,6.2-1.8,8.3-5.1c2.1-3.3,3.6-7.8,3.9-12.1c0.4-4.8,0.8-9.5,1.2-14.3c0.5-5.6-1.3-10.2-4.4-12.2
		c-0.1,0-0.2,0-0.4,0c0-0.1,0-0.1,0.1-0.2c-1.6-1-3.5-1.3-5.7-0.7c-1.6,0.4-3.2,0.9-4.9,1.3C102.1,65.9,95.6,77.3,80.1,75z"/>
	<path fill="none" d="M70.2,73c-0.3,0-0.5,0-0.8-0.1c-1.1,1.7-1.4,2.7-1.4,3c1.3,1.9,2.8,3.5,4.4,5c-0.1-1.5-0.3-3.1-0.7-4.6
		C71,74.2,70.4,73.3,70.2,73z"/>
	<path fill="none" d="M28.9,99.4c1.2,3.8,3.7,7.8,6.7,10.8c3.4,3.4,6.8,6.8,10.2,10.1c4,4,8.6,5.6,12.2,4.5c0.1-0.1,0.2-0.2,0.2-0.3
		c0,0.1,0.1,0.1,0.1,0.2c1.8-0.6,3.2-1.9,4.2-3.9c0.8-1.7,1.7-3.5,2.5-5.3c2.9-9.1,6.6-18.5,7.3-28.1c-4.6-4.2-7.8-9-8.6-14.3
		c-12.4,1.5-23.1,10.5-33.3,16.6C29.1,91.4,27.8,95.6,28.9,99.4z"/>
	<path fill="#167261" d="M121.2,36.8c5.4,2.8,8.7,10.2,7.9,19.5c-0.6,7.4-1.2,14.8-1.8,22.2c-1.2,13.3-8.9,27.7-18.7,26.8
		c-1.1-0.1-2.3-0.3-3.6-0.5c0.5,0.2,1,0.4,1.5,0.6c2,0.5,4.3,1,6.1,1.1c9.8,0.9,17.6-13.5,18.7-26.8c0.6-7.4,1.2-14.8,1.8-22.2
		C134.1,46.1,129,37.5,121.2,36.8z"/>
	<path fill="#167261" d="M115.4,51.8c-0.1-0.1-0.2-0.1-0.3-0.2c0,0.1,0,0.1-0.1,0.2C115.2,51.8,115.3,51.8,115.4,51.8z"/>
	<path fill="#C4982D" d="M52.2,35.2c0,0.1,0,0.2,0,0.4c0.1,0,0.1,0,0.2,0C52.3,35.5,52.3,35.3,52.2,35.2z"/>
	<path fill="#C4982D" d="M50.3,21c6.9-2.7,13.8-5.4,20.7-8.1c12.5-4.8,28.8-4.1,32.3,5.1c0.4,1,0.8,2.2,1.1,3.4
		c0-0.5-0.1-1.1-0.1-1.6c-0.4-2.1-1-4.3-1.7-6C99.1,4.7,82.8,4,70.3,8.8c-6.9,2.7-13.8,5.4-20.7,8.1c-10.7,4.1-16.2,12.5-13.4,19.7
		C36.3,30.5,41.6,24.3,50.3,21z"/>
	<path fill="#F7B72B" d="M78.8,74.8c0.4,0.1,0.9,0.2,1.3,0.2c15.5,2.3,22.1-9.1,24.4-22.8c-0.3,0.1-0.5,0.1-0.8,0.2
		c-1.7,0.7-3.5,1.4-5.2,2.1c-0.4,4.5-1.6,8.8-3.9,12.9c-0.3,0.1-1.5,0.3-3.6,0c-3.9-0.8-7.5-2.3-10.8-4.1c-3.6-2-6.9-4.4-10.2-7
		c-4.2-3.4-8.2-7.2-12.1-10.8c-1.4-1.5-2.6-3-3.9-4.4c-1.4-1.7-2-3.5-1.8-5.4c0-0.1,0-0.2,0-0.4c0.5-3.7,3.8-7.3,9-9.3
		c4.5-1.7,8.9-3.5,13.4-5.2c4-1.5,8.7-2.2,12.6-1.7c3.9,0.5,7.2,3.4,8.3,5.3c0.6,5.1,1.7,10.5,2.4,15.9c1.2-0.4,2.4-0.8,3.5-1.1
		c1.4-0.4,2.8-0.8,4.3-1.1c0-5.1-0.2-9.9-0.6-13.8c-0.2-0.8-0.4-1.7-0.6-2.6c-0.3-1.2-0.7-2.4-1.1-3.4c-3.5-9.2-19.8-9.9-32.3-5.1
		c-6.9,2.7-13.8,5.4-20.7,8.1c-8.7,3.3-14,9.5-14.1,15.6c-0.1,2.7,0.9,5.4,2.9,7.8c2.6,3,5.2,6,7.8,9c1.3,1.5,2.8,3,4.4,4.6
		c3.5,4,7.6,7.9,12.3,10.7C69.6,68.7,75,70.4,78.8,74.8z"/>
	<path fill="#215C7E" d="M58,124.8c0.1,0,0.2-0.1,0.3-0.1c0-0.1-0.1-0.1-0.1-0.2C58.2,124.6,58.1,124.7,58,124.8z"/>
	<path fill="#215C7E" d="M45.7,132.3c-5.3-5.2-10.5-10.5-15.8-15.7C20.5,107.1,14.5,92,21.5,85c0.8-0.8,1.7-1.6,2.7-2.4
		c-0.5,0.3-1,0.5-1.4,0.8c-1.7,1.2-3.5,2.6-4.8,4c-7,6.9-1,22.1,8.4,31.6c5.3,5.2,10.5,10.5,15.8,15.7c8.1,8.1,18,9.8,23.5,4.2
		C60.1,141.2,52.3,138.9,45.7,132.3z"/>
	<path fill="#23B899" d="M127.2,78.5c0.6-7.4,1.2-14.8,1.8-22.2c0.8-9.3-2.4-16.7-7.9-19.5c-2.4-1.2-5.2-1.6-8.3-0.8
		c-2.4,0.6-4.8,1.3-7.2,1.9c-1.4,0.4-2.8,0.8-4.3,1.1c-1.1,0.3-2.3,0.7-3.5,1.1c-0.8,0.3-1.7,0.6-2.5,0.9
		c-6.7,1.8-13.7,4.7-19.1,9.5c-2.5,1.8-4.6,3.7-6.3,5.7c3.2,2.6,6.6,5.1,10.2,7c5.7-3.6,12.1-6.2,18.4-8.7c1.8-0.7,3.5-1.4,5.2-2.1
		c0.3-0.1,0.5-0.1,0.8-0.2c1.7-0.5,3.3-0.9,4.9-1.3c2.1-0.5,4.1-0.2,5.7,0.7c0.1,0.1,0.2,0.1,0.3,0.2c3.1,2,4.9,6.6,4.4,12.2
		c-0.4,4.8-0.8,9.5-1.2,14.3c-0.4,4.3-1.8,8.8-3.9,12.1c-2.1,3.3-6.2,5-8.3,5.1c-7.1-2.4-15.1-4.2-22.4-7.4
		c-4.3-1.8-8.3-4.1-11.7-7.3c-1.6-1.5-3.1-3.1-4.4-5c0.1-0.3,0.4-1.3,1.4-3c-1.9-0.1-3.8-0.1-5.6,0.2c0.7,5.3,4,10.1,8.6,14.3
		c3.4,3.2,7.6,6,11.8,8.4c0,0,0,0,0,0c6.3,3.6,13,6.5,18.2,8.4c0.8,0.2,1.7,0.4,2.6,0.6c1.2,0.3,2.5,0.5,3.6,0.5
		C118.3,106.2,126.1,91.8,127.2,78.5z"/>
	<path fill="#4898B2" d="M65,115.5c-0.8,1.9-1.6,3.6-2.5,5.3c-1,2-2.4,3.3-4.2,3.9c-0.1,0-0.2,0.1-0.3,0.1
		c-3.6,1.1-8.2-0.5-12.2-4.5c-3.4-3.4-6.8-6.7-10.2-10.1c-3-3.1-5.5-7-6.7-10.8c-1.2-3.8,0.2-8,1.5-9.7
		c10.2-6.2,20.9-15.1,33.3-16.6c1.8-0.2,3.7-0.3,5.6-0.2c0.3,0,0.5,0,0.8,0.1c0.2,0.3,0.9,1.2,1.4,3.3c0.3,1.5,0.5,3.1,0.7,4.6
		c3.4,3.1,7.4,5.4,11.7,7.3c-0.2-1.8-0.6-3.5-1-5c-1-3.5-2.4-6.3-4.3-8.5c0,0,0,0,0,0c-3.8-4.4-9.2-6.1-15.2-6.2
		C51,68.5,35.7,75.7,26.3,81c-0.7,0.5-1.4,1-2.1,1.6c-1,0.8-1.9,1.6-2.7,2.4c-7,6.9-1,22.1,8.4,31.6c5.3,5.2,10.5,10.5,15.8,15.7
		c6.6,6.6,14.3,8.9,20,6.6c2.5-1,4.5-3,5.9-5.8c1.7-3.6,3.4-7.2,5.1-10.8c0.8-1.8,1.6-3.8,2.4-5.8c2.9-6.3,5.3-13.5,5-20.7
		c-4.3-2.5-8.4-5.3-11.8-8.4C71.6,96.9,67.9,106.4,65,115.5z"/>
</g>
</svg>
